# xmcd
#
# Track frame offsets: 
#        182
#        24485
#        39087
#        70840
#        91580
#        108730
#        127172
#        149950
#        168435
#        192975
#        216790
#        230895
#        255597
#        280497
#        304592
#
# Disc length: 4292 seconds
#
# Revision: 2
# Processed by: cddbd v1.5.2PL0 Copyright (c) Steve Scherf et al.
# Submitted via: ExactAudioCopy v0.99pb5
#
DISCID=e110c20f
DTITLE=Various Artist - Blues Balads Vol 1 - CD 1
DYEAR=1989
DGENRE=Blues
TTITLE0=Muddy Waters - Mannish Boy
TTITLE1=Chicken Shack - I'd Rather Go Blind
TTITLE2=B.B. King - Sweet Sixteen
TTITLE3=James Cotton - Easy Loving
TTITLE4=Albert Collins and Robert Cray - The Dream
TTITLE5=Rory Block - Lovin' Whiskey
TTITLE6=Derek and The Dominoes - Nobody Knows You When You're Down and O
TTITLE6=ut
TTITLE7=Bobby Bland - Members Only
TTITLE8=Ted Hawkins - You've Changed
TTITLE9=The Robert Cray Band - I've Slipped Her Mind
TTITLE10=Eric Clapton and John Mayall - Ramblin' On My Mind
TTITLE11=Lonnie Brooks - Mr. Somebody
TTITLE12=Blues Brothers - Shot Gun Blues
TTITLE13=Lonnie Mack - Stop
TTITLE14=Fleetwood Mac - Need Your Love So Bad
EXTD=
EXTT0=Muddy Waters\n
EXTT1=Chicken Shack\n
EXTT2=B.B. King\n
EXTT3=James Cotton\n
EXTT4=Albert Collins and Robert Cray\n
EXTT5=Rory Block\n
EXTT6=Derek and the Dominos\n
EXTT7=Bobby Bland\n
EXTT8=Ted Hawkins\n
EXTT9=The Robert Cray Band\n
EXTT10=Eric Clapton and John Mayall\n
EXTT11=Lonnie Brooks\n
EXTT12=Blues Brothers\n
EXTT13=Lonnie Mack\n
EXTT14=Fleetwood Mac\n
PLAYORDER=
